<svg width="113" height="150" viewBox="0 0 113 150" fill="none" xmlns="http://www.w3.org/2000/svg">
  <g clip-path="url(#clip0_37_198)">
    <path
      d="M28.4531 106.239C25.9072 103.693 27.2344 104.411 21.0937 102.767C18.3076 102.02 15.8584 100.585 13.6436 98.8652L0.351561 131.455C-0.934571 134.61 1.46777 138.038 4.87207 137.909L20.3086 137.32L30.9258 148.535C33.2695 151.008 37.3828 150.237 38.6689 147.082L53.918 109.693C50.7422 111.463 47.2178 112.5 43.5732 112.5C37.8603 112.5 32.4932 110.276 28.4531 106.239ZM112.148 131.455L98.8564 98.8652C96.6416 100.588 94.1924 102.02 91.4063 102.767C85.2334 104.42 86.5869 103.699 84.0469 106.239C80.0068 110.276 74.6367 112.5 68.9238 112.5C65.2793 112.5 61.7549 111.46 58.5791 109.693L73.8281 147.082C75.1143 150.237 79.2305 151.008 81.5713 148.535L92.1914 137.32L107.628 137.909C111.032 138.038 113.435 134.607 112.148 131.455ZM77.0508 99.6093C81.5273 95.0536 82.04 95.4462 88.415 93.7089C92.4844 92.5985 95.666 89.3612 96.7559 85.2187C98.9473 76.8984 98.3789 77.9032 104.358 71.8154C107.338 68.7831 108.501 64.3622 107.411 60.2196C105.223 51.9052 105.22 53.0653 107.411 44.7421C108.501 40.5995 107.338 36.1786 104.358 33.1464C98.3789 27.0585 98.9473 28.0605 96.7559 19.7431C95.666 15.6005 92.4844 12.3632 88.415 11.2529C80.2471 9.02336 81.2314 9.60637 75.2461 3.51555C72.2666 0.483319 67.9219 -0.703204 63.8525 0.407147C55.6875 2.63371 56.8271 2.63664 48.6475 0.407147C44.5781 -0.703204 40.2334 0.48039 37.2539 3.51555C31.2744 9.60344 32.2588 9.02336 24.0879 11.2529C20.0186 12.3632 16.8369 15.6005 15.7471 19.7431C13.5586 28.0605 14.124 27.0585 8.14453 33.1464C5.16504 36.1786 3.99902 40.5995 5.0918 44.7421C7.28027 53.0507 7.2832 51.8905 5.0918 60.2167C4.00195 64.3593 5.16504 68.7802 8.14453 71.8154C14.124 77.9032 13.5557 76.8984 15.7471 85.2187C16.8369 89.3612 20.0186 92.5985 24.0879 93.7089C30.6445 95.496 31.1338 95.2148 35.4492 99.6093C39.3252 103.556 45.3633 104.262 50.0215 101.314C51.8842 100.132 54.0451 99.5038 56.2515 99.5038C58.4579 99.5038 60.6187 100.132 62.4814 101.314C67.1367 104.262 73.1748 103.556 77.0508 99.6093ZM28.6113 51.5507C28.6113 36.0146 40.9863 23.4198 56.25 23.4198C71.5137 23.4198 83.8887 36.0146 83.8887 51.5507C83.8887 67.0868 71.5137 79.6816 56.25 79.6816C40.9863 79.6816 28.6113 67.0868 28.6113 51.5507Z"
      fill="#F55D00" />
  </g>
  <defs>
    <clipPath id="clip0_37_198">
      <rect width="112.5" height="150" fill="white" />
    </clipPath>
  </defs>
</svg>