<svg width="44" height="50" viewBox="0 0 44 50" fill="none" xmlns="http://www.w3.org/2000/svg">
<g clip-path="url(#clip0_74_395)">
<path d="M42.3771 6.43955L37.3104 1.37295C36.4314 0.493871 35.2391 6.50075e-06 33.9959 0L17.1875 0C14.5986 0 12.5 2.09863 12.5 4.6875V9.375H4.6875C2.09863 9.375 0 11.4736 0 14.0625V45.3125C0 47.9014 2.09863 50 4.6875 50H26.5625C29.1514 50 31.25 47.9014 31.25 45.3125V40.625H39.0625C41.6514 40.625 43.75 38.5264 43.75 35.9375V9.7541C43.75 8.5109 43.2561 7.31862 42.3771 6.43955ZM25.9766 45.3125H5.27344C5.11804 45.3125 4.969 45.2508 4.85912 45.1409C4.74923 45.031 4.6875 44.882 4.6875 44.7266V14.6484C4.6875 14.493 4.74923 14.344 4.85912 14.2341C4.969 14.1242 5.11804 14.0625 5.27344 14.0625H12.5V35.9375C12.5 38.5264 14.5986 40.625 17.1875 40.625H26.5625V44.7266C26.5625 44.882 26.5008 45.031 26.3909 45.1409C26.281 45.2508 26.132 45.3125 25.9766 45.3125ZM38.4766 35.9375H17.7734C17.618 35.9375 17.469 35.8758 17.3591 35.7659C17.2492 35.656 17.1875 35.507 17.1875 35.3516V5.27344C17.1875 5.11804 17.2492 4.969 17.3591 4.85912C17.469 4.74923 17.618 4.6875 17.7734 4.6875H28.125V13.2812C28.125 14.5757 29.1743 15.625 30.4688 15.625H39.0625V35.3516C39.0625 35.507 39.0008 35.656 38.8909 35.7659C38.781 35.8758 38.632 35.9375 38.4766 35.9375ZM39.0625 10.9375H32.8125V4.6875H33.7531C33.9085 4.6875 34.0575 4.74922 34.1675 4.85908L38.8909 9.58252C38.9453 9.63694 38.9885 9.70154 39.0179 9.77263C39.0474 9.84373 39.0625 9.91992 39.0625 9.99687V10.9375Z" fill="#F55D00"/>
</g>
<defs>
<clipPath id="clip0_74_395">
<rect width="43.75" height="50" fill="white"/>
</clipPath>
</defs>
</svg>
