<svg width="1000" height="100" viewBox="0 0 1000 100" fill="none" xmlns="http://www.w3.org/2000/svg">
  <g clip-path="url(#clip0_39_201)">
    <path opacity="0.33"
      d="M473 67.3C269.1 155.6 209.9 33.3 152.7 67.3C66 119.1 0 59.7 0 59.7V0H1000V59.7C1000 59.7 937.9 85.8 905.1 89C872.3 92.3 842.3 76.7 829.3 66.9C806 49.6 745.3 8.7 694.9 4.7C644.5 0.7 492.4 59 473 67.3Z"
      fill="black" />
    <path opacity="0.66"
      d="M734 67.3C688.5 67.3 656.8 44.1 604.9 28.2C576.3 19.5 454.6 18.1 350.9 67.3C247.2 116.5 259.2 32.9 201.7 67.3C115.7 118.3 0 39.8 0 39.8V0H1000V36.5C1000 36.5 971.8 18 907.9 18C810.2 18.1 775.7 67.3 734 67.3Z"
      fill="black" />
    <path
      d="M766.1 28.9C566.1 -28.6 500.1 94.4 371 48.4C242 1.8 242 5.4 184.8 20.6C128 35.8 132.3 44.9 89.9 52.5C28.6 63.7 0 0 0 0H1000C1000 0 990.1 40.9 916.4 48.1C842.7 55.3 829.6 47 766.1 28.9Z"
      fill="black" />
  </g>
  <defs>
    <clipPath id="clip0_39_201">
      <rect width="1000" height="100" fill="white" />
    </clipPath>
  </defs>
</svg>