<svg width="30" height="30" viewBox="0 0 30 30" fill="none" xmlns="http://www.w3.org/2000/svg">
<path d="M14.9595 10.7481C12.6304 10.7481 10.7518 12.6268 10.7518 14.9559C10.7518 17.285 12.6304 19.1636 14.9595 19.1636C17.2886 19.1636 19.1673 17.285 19.1673 14.9559C19.1673 12.6268 17.2886 10.7481 14.9595 10.7481ZM14.9595 17.6915C13.4544 17.6915 12.2239 16.4647 12.2239 14.9559C12.2239 13.4471 13.4507 12.2203 14.9595 12.2203C16.4683 12.2203 17.6951 13.4471 17.6951 14.9559C17.6951 16.4647 16.4647 17.6915 14.9595 17.6915ZM20.3209 10.576C20.3209 11.1216 19.8814 11.5574 19.3394 11.5574C18.7938 11.5574 18.358 11.118 18.358 10.576C18.358 10.034 18.7974 9.59454 19.3394 9.59454C19.8814 9.59454 20.3209 10.034 20.3209 10.576ZM23.1077 11.5721C23.0455 10.2574 22.7452 9.09283 21.782 8.13336C20.8226 7.17389 19.658 6.8736 18.3433 6.80768C16.9883 6.73077 12.9271 6.73077 11.5721 6.80768C10.261 6.86993 9.0965 7.17023 8.13336 8.1297C7.17023 9.08917 6.8736 10.2537 6.80768 11.5684C6.73077 12.9234 6.73077 16.9847 6.80768 18.3397C6.86993 19.6544 7.17023 20.8189 8.13336 21.7784C9.0965 22.7379 10.2574 23.0381 11.5721 23.1041C12.9271 23.181 16.9883 23.181 18.3433 23.1041C19.658 23.0418 20.8226 22.7415 21.782 21.7784C22.7415 20.8189 23.0418 19.6544 23.1077 18.3397C23.1846 16.9847 23.1846 12.9271 23.1077 11.5721ZM21.3572 19.7935C21.0716 20.5113 20.5186 21.0643 19.7972 21.3536C18.7169 21.782 16.1534 21.6832 14.9595 21.6832C13.7657 21.6832 11.1985 21.7784 10.1219 21.3536C9.40411 21.0679 8.85114 20.515 8.56183 19.7935C8.13336 18.7132 8.23224 16.1497 8.23224 14.9559C8.23224 13.762 8.13702 11.1949 8.56183 10.1182C8.84747 9.40045 9.40045 8.84747 10.1219 8.55817C11.2022 8.1297 13.7657 8.22858 14.9595 8.22858C16.1534 8.22858 18.7205 8.13336 19.7972 8.55817C20.515 8.84381 21.0679 9.39679 21.3572 10.1182C21.7857 11.1985 21.6868 13.762 21.6868 14.9559C21.6868 16.1497 21.7857 18.7169 21.3572 19.7935Z" fill="#DA00A7"/>
</svg>
