<svg width="150" height="150" viewBox="0 0 150 150" fill="none" xmlns="http://www.w3.org/2000/svg">
<path d="M145.312 112.5H18.75V23.4375C18.75 20.8477 16.6523 18.75 14.0625 18.75H4.6875C2.09766 18.75 0 20.8477 0 23.4375V121.875C0 127.052 4.19824 131.25 9.375 131.25H145.312C147.902 131.25 150 129.152 150 126.562V117.188C150 114.598 147.902 112.5 145.312 112.5ZM135.938 28.125H101.35C95.0859 28.125 91.9482 35.6982 96.3779 40.1279L105.87 49.6201L84.375 71.1182L62.8799 49.623C59.2178 45.9609 53.2822 45.9609 49.623 49.623L29.499 69.7471C27.668 71.5781 27.668 74.5459 29.499 76.377L36.126 83.0039C37.957 84.835 40.9248 84.835 42.7559 83.0039L56.25 69.5068L77.7451 91.002C81.4072 94.6641 87.3428 94.6641 91.002 91.002L119.127 62.877L128.619 72.3691C133.049 76.7988 140.622 73.6611 140.622 67.3975V32.8125C140.625 30.2227 138.527 28.125 135.938 28.125Z" fill="#F55D00"/>
</svg>
