<svg width="30" height="30" viewBox="0 0 30 30" fill="none" xmlns="http://www.w3.org/2000/svg">
<path d="M20.699 9.13403C19.1646 7.59595 17.1211 6.75 14.9495 6.75C10.467 6.75 6.81958 10.3975 6.81958 14.8799C6.81958 16.3118 7.19312 17.7107 7.90356 18.9448L6.75 23.1562L11.0603 22.0247C12.2468 22.6729 13.5835 23.0134 14.9458 23.0134H14.9495C19.4282 23.0134 23.1562 19.366 23.1562 14.8835C23.1562 12.7119 22.2334 10.6721 20.699 9.13403ZM14.9495 21.6438C13.7336 21.6438 12.5435 21.3179 11.5071 20.7026L11.2617 20.5562L8.70557 21.2263L9.38672 18.7324L9.22559 18.4761C8.5481 17.3994 8.19287 16.158 8.19287 14.8799C8.19287 11.1555 11.2251 8.12329 14.9531 8.12329C16.7585 8.12329 18.4541 8.82642 19.7285 10.1045C21.0029 11.3826 21.7866 13.0781 21.783 14.8835C21.783 18.6116 18.6738 21.6438 14.9495 21.6438ZM18.6555 16.5828C18.4541 16.4802 17.4543 15.9895 17.2676 15.9236C17.0808 15.854 16.9453 15.821 16.8098 16.0261C16.6743 16.2312 16.2861 16.6853 16.1653 16.8245C16.0481 16.96 15.9272 16.9783 15.7258 16.8757C14.532 16.2788 13.7483 15.8101 12.9609 14.4587C12.7522 14.0999 13.1697 14.1255 13.5579 13.3491C13.6238 13.2136 13.5908 13.0964 13.5396 12.9939C13.4883 12.8914 13.0818 11.8916 12.9133 11.4851C12.7485 11.0896 12.5801 11.1445 12.4556 11.1372C12.3384 11.1299 12.2029 11.1299 12.0674 11.1299C11.9319 11.1299 11.7122 11.1812 11.5254 11.3826C11.3386 11.5876 10.8149 12.0784 10.8149 13.0781C10.8149 14.0779 11.5437 15.0447 11.6426 15.1802C11.7451 15.3157 13.0745 17.3665 15.1143 18.249C16.4033 18.8057 16.9087 18.8533 17.5532 18.7581C17.9451 18.6995 18.7544 18.2673 18.9229 17.7913C19.0913 17.3152 19.0913 16.9087 19.04 16.8245C18.9924 16.7329 18.8569 16.6816 18.6555 16.5828Z" fill="#37B726"/>
</svg>
