<svg width="146" height="150" viewBox="0 0 146 150" fill="none" xmlns="http://www.w3.org/2000/svg">
  <g clip-path="url(#clip0_33_196)">
    <path
      d="M72.5391 2.34375C114.082 2.34375 145.312 34.5996 145.312 75C145.312 118.096 110.596 147.656 72.5391 147.656C33.2813 147.656 0 115.576 0 75C0 36.0645 30.6738 2.34375 72.5391 2.34375ZM72.7734 15.4395C38.1445 15.4395 13.0957 44.1211 13.0957 75C13.0957 107.168 39.8145 134.414 72.7734 134.414C103.008 134.414 132.188 110.654 132.188 75C132.217 41.6602 105.762 15.4395 72.7734 15.4395ZM72.6562 33.1641C48.6621 33.1641 42.627 55.8105 42.627 75C42.627 94.1895 48.6621 116.836 72.6562 116.836C96.6504 116.836 102.686 94.1895 102.686 75C102.686 55.8105 96.6504 33.1641 72.6562 33.1641ZM72.6562 48.9551C73.623 48.9551 74.5313 49.1016 75.3516 49.3066C77.0801 50.8008 77.9297 52.8516 76.2598 55.7227L60.293 85.0781C59.7949 81.3574 59.7363 77.7246 59.7363 75C59.7363 66.5625 60.3223 48.9551 72.6562 48.9551ZM84.6094 62.4902C85.459 67.002 85.5762 71.6895 85.5762 75C85.5762 83.4668 84.9902 101.045 72.6562 101.045C68.7012 101.045 63.1055 98.7891 66.7676 93.3105L84.6094 62.4902Z"
      fill="#F55D00" />
  </g>
  <defs>
    <clipPath id="clip0_33_196">
      <rect width="145.312" height="150" fill="white" />
    </clipPath>
  </defs>
</svg>